<?xml version="1.0" encoding="utf-8"?>
<!-- Generator: Adobe Illustrator 22.1.0, SVG Export Plug-In . SVG Version: 6.00 Build 0)  -->
<svg version="1.1" id="Layer_1" xmlns="http://www.w3.org/2000/svg" xmlns:xlink="http://www.w3.org/1999/xlink" x="0px" y="0px"
	 viewBox="0 0 155 25" style="enable-background:new 0 0 155 25;" xml:space="preserve">
<style type="text/css">
	.st0{fill:#FFFFFF;}
</style>
<g>
	<g>
		<g>
			<path class="st0" d="M35.4,6c0-0.4,0.4-0.8,0.8-0.8h4.3c2.8,0,4.3,1.2,4.3,3.5c0,1.4-0.8,2.4-2.3,2.9c2,0.4,2.9,1.7,2.9,3.2
				c0,2.4-1.5,3.7-4.8,3.7h-4.4c-0.4,0-0.8-0.3-0.8-0.8V6z M40.5,11.1c1.7,0,2.8-0.9,2.8-2.4c0-1.5-1-2.3-2.9-2.3h-3.6v4.7H40.5z
				 M40.6,17.2c2.4,0,3.4-0.7,3.4-2.5c0-1.6-1.1-2.4-3.3-2.4h-3.8v4.9H40.6z"/>
		</g>
		<g>
			<path class="st0" d="M52.1,5.7c0-0.4,0.2-0.6,0.6-0.6h0.2c0.4,0,0.6,0.2,0.6,0.6v12.2c0,0.4-0.2,0.6-0.6,0.6h-0.2
				c-0.4,0-0.6-0.2-0.6-0.6V5.7z"/>
		</g>
		<g>
			<path class="st0" d="M61,5.7c0-0.4,0.2-0.6,0.6-0.6h0.2c0.4,0,0.6,0.2,0.6,0.6v11.5h6.4c0.4,0,0.6,0.2,0.6,0.6v0.1
				c0,0.4-0.2,0.6-0.6,0.6h-7c-0.4,0-0.8-0.3-0.8-0.8V5.7z"/>
		</g>
		<g>
			<path class="st0" d="M73.8,5.7c0-0.4,0.2-0.6,0.6-0.6h0.2c0.4,0,0.6,0.2,0.6,0.6v11.5h6.4c0.4,0,0.6,0.2,0.6,0.6v0.1
				c0,0.4-0.2,0.6-0.6,0.6h-7c-0.4,0-0.8-0.3-0.8-0.8V5.7z"/>
		</g>
		<g>
			<path class="st0" d="M85.8,14v-0.4c0-0.4,0.2-0.7,0.6-1.1l5.3-6.5c0.5-0.6,0.6-0.8,1.3-0.8C93.8,5.1,94,5.4,94,6v7.4h1.8
				c0.4,0,0.6,0.2,0.6,0.6v0.1c0,0.4-0.2,0.6-0.6,0.6H94v3.2c0,0.4-0.2,0.6-0.6,0.6h-0.2c-0.3,0-0.6-0.3-0.6-0.6v-3.2h-5.9
				C86.2,14.7,85.8,14.4,85.8,14z M92.7,13.5v-7l-5.6,7H92.7z"/>
		</g>
		<g>
			<path class="st0" d="M104.3,6.5h-4.2c-0.4,0-0.6-0.2-0.6-0.6V5.8c0-0.4,0.2-0.6,0.6-0.6h9.8c0.4,0,0.6,0.2,0.6,0.6v0.1
				c0,0.4-0.2,0.6-0.6,0.6h-4.2v11.5c0,0.4-0.2,0.6-0.6,0.6h-0.2c-0.4,0-0.6-0.2-0.6-0.6V6.5z"/>
		</g>
		<g>
			<path class="st0" d="M115.9,5.7c0-0.4,0.2-0.6,0.6-0.6h0.2c0.4,0,0.6,0.2,0.6,0.6v12.2c0,0.4-0.2,0.6-0.6,0.6h-0.2
				c-0.4,0-0.6-0.2-0.6-0.6V5.7z"/>
		</g>
		<g>
			<path class="st0" d="M124.8,6c0-0.5,0.4-0.9,1-0.9h0.3c0.7,0,0.9,0.3,1.2,1l3.5,7.8l3.5-7.8c0.3-0.7,0.5-1,1.2-1h0.3
				c0.6,0,1,0.4,1,0.9v12c0,0.4-0.2,0.6-0.6,0.6h-0.2c-0.4,0-0.6-0.2-0.6-0.6V6.7l-3.5,7.6c-0.2,0.6-0.5,0.9-1.2,0.9
				c-0.7,0-1-0.3-1.2-0.9l-3.5-7.6v11.2c0,0.4-0.2,0.6-0.6,0.6h-0.2c-0.4,0-0.6-0.2-0.6-0.6V6z"/>
		</g>
		<g>
			<path class="st0" d="M144.2,6c0-0.4,0.3-0.8,0.8-0.8h8c0.4,0,0.6,0.2,0.6,0.6v0.1c0,0.4-0.2,0.6-0.6,0.6h-7.4V11h5.9
				c0.4,0,0.6,0.2,0.6,0.6v0.1c0,0.4-0.2,0.6-0.6,0.6h-5.9v4.9h7.5c0.4,0,0.6,0.2,0.6,0.6v0.1c0,0.4-0.2,0.6-0.6,0.6H145
				c-0.4,0-0.8-0.3-0.8-0.8V6z"/>
		</g>
	</g>
	<g>
		<g>
			<polygon class="st0" points="15.8,8.1 16.6,11 21.4,11 14.7,25 18.4,25 26.5,8.1 			"/>
		</g>
		<g>
			<polygon class="st0" points="5.1,14 11.8,0 8.1,0 0,16.9 10.7,16.9 9.9,14 			"/>
		</g>
		<g>
			<g>
				<polygon class="st0" points="9.9,6.9 14.2,23 16.5,18.1 12.3,2 				"/>
			</g>
		</g>
	</g>
</g>
</svg>
